# xmcd CD database file
#
# Track frame offsets:
#	151
#	155105
#	300443
#
# Disc length: 4438 seconds
#
# Revision: 0
# Processed by: cddbd v1.5.1PL0 Copyright (c) Steve Scherf et al.
# Submitted via: CDex 1.51
#
DISCID=1b115403
DTITLE=Antonio Arnedo, Cesar Lopez - Vacio y Realidad [CD2)
DYEAR=1999
DGENRE=Jazz
TTITLE0=La Casa
TTITLE1=Dos Puertas
TTITLE2=La Tercera Realidad
EXTD=YEAR: 1999
EXTT0=
EXTT1=
EXTT2=
PLAYORDER=
